<?xml version="1.0" encoding="UTF-8" standalone="no"?>
<!-- Created with Inkscape (http://www.inkscape.org/) -->
<svg xmlns:dc="http://purl.org/dc/elements/1.1/" xmlns:cc="http://creativecommons.org/ns#" xmlns:rdf="http://www.w3.org/1999/02/22-rdf-syntax-ns#" xmlns:svg="http://www.w3.org/2000/svg" xmlns="http://www.w3.org/2000/svg" xmlns:sodipodi="http://sodipodi.sourceforge.net/DTD/sodipodi-0.dtd" xmlns:inkscape="http://www.inkscape.org/namespaces/inkscape" id="svg2" sodipodi:docname="octopus.svg" viewBox="0 0 530.11 430" version="1.1" inkscape:version="0.48.4 r9939" width="1000px">
  <defs id="defs28"/>
  <sodipodi:namedview id="base" bordercolor="#666666" inkscape:pageshadow="2" inkscape:window-y="-8" fit-margin-left="0" pagecolor="#ffffff" fit-margin-top="0" inkscape:window-maximized="1" inkscape:zoom="1.0617204" inkscape:window-x="-8" inkscape:window-height="998" showgrid="false" borderopacity="1.0" inkscape:current-layer="layer1" inkscape:cx="292.8011" inkscape:cy="184.92701" fit-margin-right="0" fit-margin-bottom="0" inkscape:window-width="1680" inkscape:pageopacity="0.0" inkscape:document-units="px"/>
  <g id="layer1" inkscape:label="Layer 1" inkscape:groupmode="layer" transform="translate(-83.493 -164.25)">
    <path d="m 251.43313,572.04528 c -3.025,-1.6645 -7.4182,-4.9057 -9.7628,-7.2026 -5.8662,-5.7471 -12.951,-19.8 -14.866,-29.488 -1.9025,-9.6227 -1.1845,-22.619 1.597,-28.907 4.3484,-9.8304 18.809,-20.028 33.854,-23.876 3.4772,-0.8891 7.7522,-2.4385 9.5,-3.4429 1.7478,-1.0044 7.0803,-3.4834 11.85,-5.5089 4.7697,-2.0255 9.4672,-4.5612 10.439,-5.6349 3.1388,-3.4683 2.9865,-12.196 -0.4722,-27.072 -1.7367,-7.4695 -3.587,-19.227 -4.2186,-26.805 -1.2599,-15.118 -3.4821,-28.964 -5.3839,-33.547 -0.6954,-1.6757 -2.7359,-4.2849 -4.5344,-5.7983 l -3.2701,-2.7516 -2.2578,2.1211 c -1.2418,1.1666 -3.6153,5.3508 -5.2745,9.2983 -8.1022,19.276 -13.23,28.471 -20.529,36.812 -9.684,11.067 -12.805,13.689 -23.315,19.592 -15.289,8.5868 -31.072,13.254 -44.855,13.265 -20.774,0.015 -46.757,-11.303 -56.63,-24.669 -5.1631,-6.9891 -9.8677,-16.977 -9.8687,-20.951 -9e-4,-3.5871 -1.0373,-4.6406 -6.2008,-6.3032 -2.035,-0.6552 -5.0725,-2.7546 -6.75,-4.6651 -3.689804,-4.2024 -3.967904,-8.4865 -1.049504,-16.165 2.611804,-6.8718 2.522204,-9.9926 -0.5005,-17.432 -3.1983,-7.871 -3.2035,-13.486 -0.018,-19.771 3.103604,-6.1248 5.787004,-8.0364 11.281004,-8.0364 7.9901,0 13.266,4.113 22.129,17.25 1.7625,2.6125 3.7696,4.75 4.4603,4.75 1.6008,0 6.496,-5.2029 10.349,-11 6.4647,-9.7255 7.6176,-16.047 11.399,-62.5 1.9017,-23.362 6.7535,-33.531 24.229,-50.784 18.594,-18.357 28.176,-22.716 49.94,-22.716 12.644,0 22.704,2.7258 33.421,9.0556 4.6041,2.7194 9.0263,4.9444 9.827,4.9444 0.8008,0 2.0941,-1.4625 2.8741,-3.25 2.2458,-5.1467 18.142,-21.648 27.533,-28.581 14.398,-10.63 33.244,-19.028 47.502,-21.169 4.3596,-0.6545 16.96,-1.2559 28,-1.3364 19.776,-0.1441 20.177,-0.1051 27.073,2.6371 12.523,4.9796 21.094,11.746 32.219,25.438 4.1394,5.0942 8.1191,9.2621 8.8437,9.2621 0.7246,0 3.621,-3.3323 6.4366,-7.4051 8.3122,-12.024 15.297,-15.606 30.37596,-15.578 8.0878,0.015 10.09,0.4106 17.624,3.4832 4.675,1.9065 9.625,3.4838 11,3.5051 5.5426,0.086 19.631,8.8586 23.936,14.905 4.6928,6.5904 7.0335,13.577 8.0952,24.164 1.2728,12.691 1.3947,13.111 5.4708,18.84 5.9103,8.3062 8.5246,14.711 9.6027,23.525 1.678,13.719 10.816,51.76 12.971,54.001 0.5607,0.583 2.2501,0.2981 4.448,-0.75 7.9223,-3.7779 16.457,-1.4949 19.996,5.3486 4.3936,8.4963 -0.9794,23.502 -10.849,30.299 -10.339,7.1205 -19.742,8.4241 -28.67,3.9747 -11.341,-5.6514 -18.685,-16.673 -22.049,-33.09 -2.7366,-13.355 -2.5846,-13.047 -7.0245,-14.242 -4.8714,-1.3117 -10.407,-6.042 -12.985,-11.096 -1.6558,-3.2456 -1.9411,-5.9242 -1.9411,-18.222 0,-11.186 -0.316,-14.68 -1.4099,-15.588 -2.0953,-1.7389 -4.1346,1.7246 -7.6104,12.925 -4.3194,13.919 -7.1159,28.035 -8.0235,40.5 -1.0601,14.559 -2.1331,18.846 -8.0781,32.275 l -5.0116,11.321 2.8168,4.5504 c 1.5492,2.5027 4.2797,7.0298 6.0678,10.06 5.1451,8.7199 16.054,24.016 22.325,31.301 3.1624,3.6743 7.3472,9.1778 9.2996,12.23 3.449,5.3916 9.5316,9.9476 15.17,11.363 3.4902,0.876 12.001,-4.0728 19.961,-11.607 10.223,-9.6757 17.581,-11.489 23.944,-5.9022 4.2901,3.7667 6.004,9.3537 5.137,16.745 -0.7369,6.2817 -2.3397,9.6574 -8.2295,17.332 -9.0472,11.789 -21.064,19.438 -33.859,21.55 -14.448,2.385 -17.259,2.5392 -22.664,1.2428 -11.658,-2.7966 -30.4,-13.206 -37.633,-20.901 -4.1084,-4.3709 -12.11796,-15.99 -15.20696,-22.06 -3.4734,-6.8251 -13.714,-19.802 -16.945,-21.473 -2.6562,-1.3736 -3.493,-1.2632 -11.525,1.5197 -5.4878,1.9015 -11.206,3.1197 -15.609,3.3253 -3.8215,0.1785 -7.2394,0.6157 -7.5953,0.9716 -0.7078,0.7078 -4.2073,18.284 -7.398,37.156 -2.4206,14.317 -3.7328,42.122 -2.1293,45.119 0.7008,1.3095 3.299,2.6322 7.3924,3.7632 16.22,4.4818 28.548,13.221 33.76,23.933 3.4718,7.1356 5.6055,18.526 4.6512,24.83 -1.5162,10.015 -8.2814,16.855 -16.67,16.855 -6.5854,0 -9.4567,-2.703 -15.305,-14.408 -5.4441,-10.896 -7.841,-13.237 -14.444,-14.108 -5.4962,-0.7253 -16.432,-3.249 -20.067,-4.6312 -4.84,-1.8402 -10.756,-7.7065 -14.101,-13.983 -3.1786,-5.9636 -3.3494,-6.8037 -3.2194,-15.834 0.2808,-19.507 -2.653,-38.621 -8.9628,-58.395 -1.117,-3.5004 -3.1974,-5.6065 -4.3749,-4.429 -0.2527,0.2527 -1.8378,5.3708 -3.5225,11.374 -3.1326,11.162 -9.9794,25.59 -15.081,31.779 -3.7122,4.5036 -17.052,13.343 -22.253,14.745 -7.1206,1.92 -24.881,5.9317 -30.598,6.9115 -11.199,1.9193 -20.48,4.8561 -22.25,7.0404 -1.9914,2.4579 -2.3674,10.184 -0.7082,14.548 0.573,1.5071 2.5848,4.4481 4.4707,6.5355 5.4345,6.0153 9.4875,14.933 9.4875,20.876 0,10.064 -5.6714,14.994 -17.21,14.961 -5.1015,-0.015 -7.329,-0.5899 -11.79,-3.0445 z m 15,-16.134 c 0,-1.3797 -3.8935,-7.3916 -8.8054,-13.596 -4.7266,-5.9706 -7.3302,-13.404 -7.4822,-21.362 -0.1063,-5.5611 0.3586,-7.5983 2.8302,-12.403 1.6266,-3.1619 4.1064,-6.6019 5.5109,-7.6445 3.0737,-2.2818 13.392,-5.0513 28.946,-7.7693 29.212,-5.1046 38.226,-9.1328 45.723,-20.432 5.7079,-8.6035 7.5762,-12.962 11.186,-26.097 5.6115,-20.418 5.8965,-65.988 0.4973,-79.5 -2.7167,-6.7989 -5.3382,-10.844 -7.4657,-11.519 -3.1259,-0.9921 -11.1,0.6176 -16.212,3.2725 -10.021,5.205 -18.685,20.117 -18.874,32.486 -0.1811,11.826 2.0866,31.276 5.1021,43.76 2.1376,8.85 3.0227,14.998 3.0312,21.054 0.011,7.7031 -0.2724,9.0026 -2.8458,13.06 -3.2858,5.1812 -10.828,11.031 -16.642,12.908 -2.2,0.7103 -6.925,2.6101 -10.5,4.2219 -3.575,1.6118 -10.721,4.4463 -15.879,6.299 -11.517,4.1362 -19.626,8.9284 -22.23,13.137 -2.6679,4.3114 -3.347,11.366 -1.9581,20.341 1.966,12.705 7.7812,22.929 16.013,28.155 4.543,2.884 10.054,3.7753 10.054,1.626 z m 176.99,-9.5538 c -0.01,-8.1598 -1.441,-12.34 -6.0108,-17.531 -4.2351,-4.8113 -13.895,-9.6195 -23.643,-11.768 -6.8506,-1.5099 -13.635,-5.0444 -14.981,-7.8054 -2.1936,-4.4976 -2.6817,-26.542 -0.9109,-41.146 1.6317,-13.458 4.5586,-30.981 7.1234,-42.648 0.7433,-3.3812 2.0793,-12.104 2.9689,-19.383 2.0808,-17.027 0.6975,-36.084 -3.0424,-41.914 -3.6673,-5.7171 -8.6277,-9.8393 -14.921,-12.4 -5.6936,-2.3164 -6.0776,-2.3443 -12.476,-0.9051 -11.969,2.6922 -17.944,9.9054 -20.189,24.374 -1.903,12.265 -0.8259,18.873 5.4563,33.471 3.0543,7.0975 8.0138,17.742 11.021,23.655 9.7037,19.078 12.229,30.46 13.478,60.75 0.7271,17.636 0.8862,18.695 3.4068,22.666 3.7252,5.8692 3.0032,5.5795 22.059,8.8524 4.8588,0.8345 10.079,2.1613 11.602,2.9484 4.343,2.2459 8.7092,7.8826 12.799,16.523 4.5661,9.6472 6.2676,10.262 6.2598,2.2599 z m 100.36996,-85.737 c 12.937,-2.1204 21.797,-8.0068 29.568,-19.643 6.7303,-10.079 4.9368,-13.296 -2.9283,-5.2526 -8.6396,8.835 -20.197,15.383 -27.152,15.383 -2.3988,0 -5.7465,-0.3972 -7.4395,-0.8828 -5.3767,-1.542 -15.008,-9.795 -20.871,-17.885 -3.0825,-4.2528 -8.7488,-11.782 -12.592,-16.732 -7.0961,-9.14 -11.197,-15.005 -16.78,-24 -8.99116,-14.485 -11.60696,-17.541 -19.00996,-22.201 -6.9437,-4.3716 -18.895,-9.328 -27.569,-11.433 -7.7297,-1.8758 -20.085,4.3957 -24.151,12.259 -1.5373,2.9729 -1.8684,12.437 -0.7945,22.712 0.6051,5.7892 0.7698,6.098 2.9581,5.5488 1.4968,-0.3756 3.3606,0.1613 5.2636,1.5163 4.105,2.923 9.0082,2.6362 16.909,-0.9891 8.9466,-4.105 16.505,-4.8402 21.781,-2.1187 7.017,3.6198 18.96596,18.267 25.94696,31.807 7.6076,14.754 20.142,25.457 36.865,31.478 6.2365,2.2455 8.625,2.2973 19.995,0.4338 z m -342.63996,-29.89 c 15.85,-5.3804 21.592,-8.8527 32.006,-19.355 8.016,-8.0846 9.8608,-10.63 14.156,-19.533 2.7164,-5.6301 5.6771,-12.332 6.5794,-14.892 2.6177,-7.4284 10.708,-20.07 14.445,-22.571 3.5507,-2.376 8.3122,-2.9047 12.346,-1.371 4.2699,1.6234 12.575,11.255 15.388,17.847 2.8738,6.733 3.8358,7.5118 4.9408,4 1.0025,-3.186 7.6842,-12.762 11.072,-15.867 8.437,-7.735 20.302,-10.858 27.335,-7.1951 3.989,2.0777 7.1456,6.3808 9.6247,13.121 2.537,6.8973 3.0281,6.9668 4.8538,0.6865 1.186,-4.0795 2.9886,-7.1273 6.3254,-10.695 5.4531,-5.8298 9.4629,-8.0319 17.716,-9.7292 5.4504,-1.1209 6.5171,-1.0403 11.645,0.8802 9.0373,3.3847 15.956,9.3608 20.841,18.003 0.6601,1.1676 1.6083,0.7427 4.8222,-2.1608 4.8476,-4.3795 11.658,-7.5202 18.184,-8.386 3.932,-0.5216 6.7139,-0.03 14.68,2.5922 5.4056,1.7797 11.951,4.308 14.545,5.6184 2.5942,1.3105 5.2221,2.3827 5.8397,2.3827 1.9608,0 4.9356,-4.2483 9.0016,-12.855 4.64976,-9.8427 6.46296,-17.195 7.42106,-30.092 1.1916,-16.04 6.6467,-39.695 12.606,-54.666 1.1193,-2.8117 3.578,-6.6076 5.4638,-8.4354 2.928,-2.8379 4.2944,-3.3858 9.3573,-3.752 8.9946,-0.6506 14.035,1.6768 19.91,9.1939 5.6814,7.2693 6.279,8.7161 9.7493,23.606 1.4742,6.325 3.7559,14.579 5.0706,18.343 1.3146,3.7636 3.0802,11.13 3.9234,16.37 2.2543,14.009 6.8797,22.181 15.736,27.802 2.4063,1.5272 3.348,1.6086 6.7666,0.5843 4.5626,-1.367 10.378,-6.1156 12.489,-10.198 1.8161,-3.5119 1.8088,-3.9012 -0.073,-3.9012 -0.8373,0 -3.4751,1.8 -5.8618,4 -3.3472,3.0853 -5.1434,4 -7.8552,4 -1.9336,0 -3.9958,-0.5784 -4.5825,-1.2854 -1.606,-1.9351 -6.9064,-15.592 -8.2442,-21.242 -0.6475,-2.7348 -2.7693,-10.597 -4.7149,-17.472 -1.9457,-6.875 -4.3524,-18.445 -5.3483,-25.71 -1.9651,-14.337 -3.0128,-17.588 -7.7379,-24.012 -9.1199,-12.399 -35.277,-14.625 -49.514,-4.2122 -4.9426,3.6147 -12.391,13.808 -16.05396,21.971 -3.1854,7.098 -4.8638,12.542 -7.6955,24.964 -6.3234,27.737 -18.699,42.253 -37.293,43.746 -7.5903,0.6093 -12.092,-1.3456 -14.086,-6.1164 -0.857,-2.051 -1.4233,-7.9822 -1.5453,-16.184 l -0.1926,-12.946 3.7284,-8 c 2.0506,-4.4 7.1038,-14.702 11.229,-22.893 13.783,-27.366 16.099,-38.116 11.444,-53.107 -1.7411,-5.6069 -3.7141,-8.9169 -9.9138,-16.632 -9.3997,-11.697 -15.914,-16.997 -25.717,-20.923 -6.8092,-2.7265 -8.5281,-2.9902 -20.232,-3.1034 -20.753,-0.2007 -29.957,0.8413 -41.364,4.6826 -17.991,6.0586 -32.907,15.65 -45.041,28.961 -7.4106,8.1295 -9.3068,11.202 -11.526,18.674 -1.3731,4.6236 -1.3393,5.0514 0.5919,7.5067 1.1264,1.432 2.048,3.6279 2.048,4.8798 0,3.9316 4.0887,13.165 7.1127,16.062 3.3961,3.2536 4.6613,2.5597 5.5727,-3.0564 0.6121,-3.7715 0.6093,-3.7751 -2.4095,-3.1121 -3.1912,0.7009 -4.7804,-0.9608 -3.6747,-3.8425 0.2962,-0.7717 -0.393,-3.2288 -1.5314,-5.4602 -2.8884,-5.6618 -2.8357,-15.002 0.1144,-20.251 1.285,-2.2862 2.9317,-3.8862 4,-3.8862 2.1831,0 2.3149,2.503 0.3159,6 -1.8768,3.283 -1.9086,12.07 -0.053,14.559 1.3976,1.8746 1.5774,1.812 5.25,-1.827 3.654,-3.6207 3.8028,-4.0316 3.8028,-10.5 0,-6.514 0.081,-6.7319 2.5,-6.7319 2.1673,0 2.5162,0.4658 2.6219,3.5 0.067,1.925 0.1795,3.8432 0.25,4.2626 0.07,0.4194 3.3352,-0.8525 7.2551,-2.8265 4.9671,-2.5014 7.8677,-3.4032 9.571,-2.9757 3.6391,0.9134 2.3861,2.5723 -4.662,6.1723 -3.4821,1.7786 -7.0228,3.9255 -7.8683,4.771 -2.913,2.913 0.3223,6.3222 11.162,11.762 5.4344,2.7271 11.021,6.168 12.415,7.6465 4.1674,4.4206 6.2888,10.398 6.5278,18.393 0.1979,6.6209 -0.1261,7.998 -3.508,14.909 -4.9442,10.103 -10.733,15.053 -18.34,15.684 -7.4854,0.6208 -12.87,-2.1947 -18.917,-9.8916 -5.1354,-6.5366 -7.5075,-12.725 -7.5075,-19.586 0,-4.036 -0.3377,-4.5997 -4.5225,-7.5494 -2.9096,-2.0509 -5.4223,-4.9859 -7.0454,-8.2294 l -2.5228,-5.0416 0.597,4.6859 c 1.4592,11.453 7.0706,24.605 18.134,42.503 11.042,17.864 14.824,28.356 12.458,34.561 -1.431,3.753 -3.6088,3.4557 -8.6368,-1.179 -7.9291,-7.3088 -11.438,-8.5348 -24.461,-8.5479 -10.371,-0.01 -12.058,0.2494 -17.178,2.646 -3.1231,1.4616 -8.6869,5.059 -12.364,7.9942 -6.5232,5.2071 -6.8892,5.7537 -15.072,22.51 -4.6123,9.4453 -8.386,17.597 -8.386,18.115 0,0.5181 -0.8865,2.069 -1.9701,3.4464 -1.0835,1.3775 -3.5029,6.2757 -5.3763,10.885 -7.3813,18.16 -15.191,26.796 -27.582,30.502 -7.371,2.2046 -13.687,1.4448 -30.027,-3.6123 -12.436,-3.8488 -14.055,-4.6422 -21.376,-10.474 -10.98,-8.7454 -14.866,-10.844 -17.08,-9.2248 -1.5709,1.1486 -1.5969,1.6372 -0.2892,5.4326 4.454,12.928 15.368,21.967 32.771,27.144 9.4109,2.7991 11.406,3.0581 20.429,2.6527 7.9853,-0.3588 12.057,-1.1477 20.212,-3.9157 z m 155.93,-87.375 c -0.7751,-1.5125 -1.732,-6.0095 -2.1265,-9.9933 -0.8187,-8.2687 -2.6063,-11.242 -8.5955,-14.297 -4.4844,-2.2878 -7.7533,-6.5261 -6.2177,-8.0616 0.6663,-0.6663 2.5999,-0.1488 5.7976,1.5513 2.9368,1.5615 6.4177,2.5511 8.9738,2.5511 5.8917,0 18.051,-4.3756 22.143,-7.9683 3.8318,-3.3644 7.1082,-3.9123 8.0903,-1.353 0.4446,1.1585 -0.4545,2.6304 -2.9015,4.75 -3.5545,3.079 -13.15,20.739 -15.796,29.071 -1.6604,5.229 -2.7566,6.5 -5.6063,6.5 -1.5574,0 -2.828,-0.929 -3.7612,-2.75 z m -1.4659,-41.474 c -1.5702,-1.5702 -1.4895,-4.9655 0.1721,-7.2379 1.8512,-2.5317 3.6517,-1.1028 3.6517,2.8982 0,3.8798 -2.0065,6.157 -3.8238,4.3396 z m 10.091,-0.9929 c -0.5681,-0.7058 -0.8096,-2.7458 -0.5366,-4.5333 0.3638,-2.3819 1.0157,-3.25 2.4404,-3.25 1.6638,0 1.8997,0.6013 1.6365,4.1723 -0.3199,4.3406 -1.7659,5.8155 -3.5403,3.611 z m 17.963,-9.7298 c -4.418,-2.7678 -10.967,-13.116 -11.795,-18.638 -1.5076,-10.053 1.8421,-21.106 8.7975,-29.028 4.0767,-4.6431 8.2228,-6.388 15.179,-6.388 4.4728,0 5.7518,-0.3945 6.9846,-2.1546 1.0539,-1.5046 1.2235,-2.6883 0.5624,-3.9237 -1.52,-2.8402 -10.914,-6.8488 -17.708,-7.556 -6.184,-0.6437 -7.747,-1.9301 -5,-4.1151 1.7543,-1.3954 12.105,0.066 18.46,2.606 5.6719,2.2673 6.8488,1.743 5.2902,-2.3566 -1.1968,-3.148 -0.5924,-4.5 2.012,-4.5 2.0795,0 3.9724,5.0456 3.9824,10.615 0,2.9188 3.2124,8.3849 4.9199,8.3849 1.3059,0 3.0857,-7.4611 3.0857,-12.936 0,-4.8243 0.164,-5.1802 2.25,-4.884 1.9893,0.2826 2.2845,0.9778 2.5479,6.001 0.4036,7.6984 -2.0648,15.602 -6.4856,20.767 -3.1288,3.6552 -3.5026,4.6084 -2.7011,6.8873 1.3857,3.9403 4.0136,3.842 7.9163,-0.296 3.9092,-4.1449 6.4726,-11.572 6.4726,-18.752 0,-3.5244 0.4375,-5.0178 1.6009,-5.4642 2.5935,-0.9952 3.5308,1.7323 3.0818,8.9677 -0.5701,9.1848 -4.6121,17.073 -10.868,21.209 -4.0334,2.6669 -4.6005,3.5072 -5.1072,7.5679 -0.8227,6.5926 -5.295,17.09 -9.2489,21.71 -5.908,6.9022 -18.162,10.076 -24.229,6.276 z m 21.827,-9.2763 c 1.619,-1.7726 2.9436,-3.7404 2.9436,-4.3729 0,-0.6325 0.9582,-3.3162 2.1294,-5.9638 3.0082,-6.8006 2.1948,-17.078 -1.7199,-21.731 -8.0811,-9.6055 -16.829,-10.992 -24.985,-3.9607 -7.5185,6.4819 -10.823,22.629 -6.404,31.291 2.3429,4.5925 4.4242,5.3014 3.5529,1.2102 -1.0752,-5.0486 1.1246,-14.323 4.1519,-17.505 5.1273,-5.3894 5.972,-5.4185 10.807,-0.3727 5.3472,5.5807 6.6606,9.8143 5.4111,17.442 -0.5122,3.1272 -0.9339,6.0233 -0.9371,6.4358 -0.013,1.683 2.2803,0.5601 5.0506,-2.4729 z m 6.2086,-40.027 c 0.5971,-1.7289 -1.3307,-5.75 -2.7566,-5.75 -0.6438,0 -1.7882,1.1543 -2.5433,2.565 -1.1766,2.1985 -1.165,2.6965 0.081,3.4847 2.0767,1.3137 4.7139,1.1622 5.2188,-0.2997 z m -52.63,172.95 c -0.8205,-3.2693 -3.5712,-9.6916 -4.1509,-9.6916 -0.2676,0 -0.4866,2.7 -0.4866,6 0,5.7998 0.087,6 2.6084,6 2.2252,0 2.5233,-0.3391 2.029,-2.3084 z m -166.43,-3.2459 c 8.3963,-2.8609 11.624,-6.7301 20.518,-24.595 8.7892,-17.654 19.276,-40.048 19.276,-41.162 0,-1.9736 -2.4072,-0.1608 -5.2706,3.969 -1.7762,2.5618 -5.9294,8.1263 -9.2294,12.366 -3.3,4.2393 -9.3659,12.081 -13.48,17.427 -4.1138,5.3453 -9.4201,11.507 -11.792,13.693 -4.9364,4.5502 -17.362,10.857 -21.391,10.857 -3.174,0 -4.359,1.3221 -2.5389,2.8326 1.0243,0.8501 16.553,5.9075 18.774,6.1142 0.3145,0.029 2.6246,-0.6462 5.1334,-1.501 z m -25.205,-24.99 c 11.721,-2.7317 17.124,-7.6575 36.154,-32.956 4.1371,-5.5 10.759,-14.795 14.715,-20.655 3.9562,-5.8601 8.8309,-11.904 10.833,-13.431 4.8316,-3.6852 13.951,-7.3635 18.299,-7.3808 3.5371,-0.014 13.97,4.2006 14.036,5.6705 0.02,0.4378 1.0578,2.0442 2.3066,3.5699 2.2589,2.7596 2.2929,2.766 6.5898,1.25 5.126,-1.8086 21.606,-2.0536 27.568,-0.41 2.2,0.6065 5.8,2.3103 8,3.7862 7.0604,4.7366 6.7876,4.686 6.0034,1.1152 -2.0539,-9.3514 -10.961,-24.59 -16.376,-28.015 -23.227,-14.693 -28.55,-16.977 -41.368,-17.75 -20.469,-1.2332 -33.929,8.4144 -49.179,35.25 -1.5628,2.75 -4.0942,6.35 -5.6253,8 -1.5311,1.65 -3.9441,5.8819 -5.3623,9.4042 -5.0474,12.536 -20.68,34.416 -26.691,37.355 -1.9788,0.9679 -7.316,2.6999 -11.86,3.8491 -7.0798,1.7903 -8.8731,1.9184 -12.528,0.8951 -6.441,-1.8034 -17.339,-10.546 -20.43,-16.388 -5.1386,-9.7142 -12.084,-15.422 -12.084,-9.9303 0,2.3721 5.5364,12.772 10.055,18.89 6.2224,8.4229 12.725,12.996 22.775,16.016 4.7681,1.4331 9.1192,2.7508 9.6692,2.9282 2.4213,0.7809 8.4967,0.3351 14.5,-1.0641 z m -46.75,-4.6439 c 4.9603,-1.9016 3.2501,-4.0593 -2.0674,-2.6084 -4.3101,1.176 -6.3924,2.6483 -5.5874,3.9508 0.58,0.9385 2.6541,0.5748 7.6548,-1.3424 z m 28.595,-14.867 c 6.8125,-4.5492 13,-11.747 17.145,-19.945 6.9007,-13.647 12.461,-34.615 13.891,-52.388 0.646,-8.0275 1.4463,-11.494 3.8824,-16.815 6.4228,-14.03 15.969,-24.753 28.05,-31.509 5.8858,-3.2915 6.8085,-3.5117 12.727,-3.0366 7.6379,0.6131 13.171,3.5418 19.344,10.239 5.1597,5.5976 7.1996,10.178 7.5398,16.929 l 0.2561,5.0817 5.5966,0.7061 c 7.0029,0.8836 19.196,5.5666 26.942,10.348 3.2514,2.0069 6.1729,3.3875 6.4923,3.0681 0.3194,-0.3194 -0.5723,-3.1776 -1.9817,-6.3515 -2.894,-6.5176 -7.047,-20.044 -8.6801,-28.271 -0.7958,-4.009 -2.4341,-7.2912 -6.0432,-12.107 -11.941,-15.934 -27.467,-22.955 -47.353,-21.413 -12.547,0.9728 -17.185,2.6297 -24.673,8.8137 -13.193,10.896 -22.322,20.895 -24.774,27.133 -3.1216,7.9405 -5.9992,25.237 -6.7311,40.46 -0.8705,18.105 -2.9687,33.028 -5.7104,40.614 -2.4764,6.8521 -10.975,19.385 -17.197,25.359 -3.6125,3.4689 -6.5682,6.4947 -6.5682,6.7239 0,1.1284 2.3133,0.055 7.8451,-3.6385 z m 289.87,-32.615 c 7.1822,-3.4082 8.8036,-9.8539 9.7672,-38.83 0.7412,-22.288 1.5679,-27.66 6.6868,-43.45 5.0441,-15.559 5.8488,-17.132 12.204,-23.861 10.136,-10.733 17.88796,-14.093 32.62496,-14.144 14.337,-0.049 24.152,7.6787 28.404,22.365 0.7522,2.5981 1.8554,4.2083 3.0395,4.4363 1.7402,0.3352 1.8236,-0.278 1.3088,-9.6216 -0.6452,-11.709 -2.6688,-17.189 -8.1132,-21.969 -4.451,-3.908 -10.77,-7.2561 -13.695,-7.2561 -3.2557,0 -13.073,-3.0021 -16.444,-5.0286 -5.0248,-3.0207 -9.3509,-3.2825 -16.67596,-1.009 -7.1586,2.2219 -10.699,5.3451 -13.747,12.128 -0.8875,1.9747 -3.2759,6.0247 -5.3075,9 -4.1988,6.1492 -10.149,21.106 -11.183,28.112 -0.8686,5.8822 -5.8749,17.452 -17.04,39.381 -8.1408,15.989 -8.7878,17.718 -10.103,27 -1.6045,11.322 -1.0367,18.393 1.7627,21.952 1.6432,2.089 2.7826,2.4652 7.4654,2.4652 3.0907,0 7.0773,-0.736 9.0455,-1.67 z m -240.03,-31.58 c 1.1172,-1.2375 3.8786,-5.0127 6.1364,-8.3893 5.5198,-8.255 13.078,-14.685 22.431,-19.083 8.5975,-4.0429 9.3334,-5.4343 5,-9.4541 -4.2448,-3.9377 -8.8171,-5.1289 -12.62,-3.2878 -6.2546,3.0279 -12.596,8.5244 -16.547,14.343 -8.9237,13.141 -12.642,35.001 -4.4002,25.872 z m 338.63996,-4.8989 c 1.7564,-2.7894 -4.6756,-28.851 -7.1205,-28.851 -1.3809,0 -2.3902,22.367 -1.159,25.683 1.8935,5.1006 6.0589,6.6943 8.2795,3.1678 z m -217.31996,0.7761 c 0,-0.2051 -0.8905,-2.386 -1.9788,-4.8464 -1.9728,-4.4597 -1.9727,-4.4957 0.013,-11.662 3.4889,-12.59 5.4426,-13.947 13.053,-9.0631 3.0741,1.9726 5.7723,4.7086 6.9819,7.0796 1.0843,2.1254 2.3965,3.8644 2.916,3.8644 2.0747,0 3.2075,-4.5107 2.8572,-11.377 -0.3018,-5.9155 -0.8754,-7.8844 -3.3826,-11.611 -4.9365,-7.3371 -19.521,-13.191 -25.24,-10.13 -3.2302,1.7288 -8.0874,9.6704 -9.8984,16.184 -1.4201,5.1078 -1.4746,6.8708 -0.3988,12.891 1.0995,6.1522 1.8548,7.6761 6.4116,12.936 2.841,3.2792 5.9529,5.9948 6.9154,6.0346 0.9625,0.04 1.75,-0.095 1.75,-0.3006 z m -8.9786,-50.26 c 4.3646,-2.8884 4.6774,-3.5422 2.5425,-5.3141 -1.0501,-0.8716 -1.977,-0.9024 -3.4487,-0.1148 -3.6669,1.9625 -6.7641,8.0617 -4.0938,8.0617 0.5618,0 2.8118,-1.1848 5,-2.6329 z m 169.62996,-4.9325 c 2.569,-1.9609 6.816,-4.6524 9.4379,-5.981 7.6831,-3.8933 7.6284,-6.1852 -0.1008,-4.2233 -3.0472,0.7734 -6.009,2.6834 -9.6896,6.2484 -4.56216,4.4189 -6.54606,7.5213 -4.80966,7.5213 0.2703,0 2.5932,-1.6044 5.16216,-3.5654 z" inkscape:connector-curvature="0" style="fill:#000000;fill-opacity:1;stroke:none" id="path3047"/>
  </g>
  <metadata id="metadata26">
    <rdf:RDF>
      <cc:Work>
        <dc:format>image/svg+xml</dc:format>
        <dc:type rdf:resource="http://purl.org/dc/dcmitype/StillImage"/>
        <cc:license rdf:resource="http://creativecommons.org/licenses/publicdomain/"/>
        <dc:publisher>
          <cc:Agent rdf:about="http://openclipart.org/">
            <dc:title>Openclipart</dc:title>
          </cc:Agent>
        </dc:publisher>
        <dc:title/>
      </cc:Work>
      <cc:License rdf:about="http://creativecommons.org/licenses/publicdomain/">
        <cc:permits rdf:resource="http://creativecommons.org/ns#Reproduction"/>
        <cc:permits rdf:resource="http://creativecommons.org/ns#Distribution"/>
        <cc:permits rdf:resource="http://creativecommons.org/ns#DerivativeWorks"/>
      </cc:License>
    </rdf:RDF>
  </metadata>
</svg>
