<?xml version="1.0" encoding="utf-8"?>
<!-- Generator: Adobe Illustrator 13.0.0, SVG Export Plug-In . SVG Version: 6.00 Build 14948)  -->
<!DOCTYPE svg PUBLIC "-//W3C//DTD SVG 1.1//EN" "http://www.w3.org/Graphics/SVG/1.1/DTD/svg11.dtd">
<svg version="1.1" id="Layer_1" xmlns="http://www.w3.org/2000/svg" xmlns:xlink="http://www.w3.org/1999/xlink" x="0px" y="0px"
	 width="1000px" height="690px" viewBox="0 0 1000 690" enable-background="new 0 0 1000 690" xml:space="preserve">
<path d="M398,618.292c-8.416-3.089-22.685-12.118-33.172-20.993c-9.862-8.345-22.663-24.715-33.648-43.029
	c-3.53-5.885-11.2-24.742-14.234-34.994c-4.432-14.977-4.938-17.114-6.098-25.775c-1.275-9.516-2.088-11.496-4.72-11.506
	c-2.165-0.008-35.888-11.109-44.127-14.526c-6.869-2.85-37.798-18.093-39.5-19.467c-0.55-0.444-3.025-1.901-5.5-3.237
	c-2.475-1.337-7.65-4.135-11.5-6.22c-3.85-2.084-10.6-6.328-15-9.43c-4.4-3.103-10.631-7.21-13.846-9.128
	c-3.215-1.917-6.815-4.443-8-5.612c-2.549-2.516-9.926-8.127-14.154-10.766c-4.39-2.74-12.896-9.181-22-16.656
	c-4.4-3.613-10.7-8.55-14-10.97c-3.3-2.421-8.7-6.713-12-9.537c-8.644-7.399-9.589-7.766-17.99-6.979
	c-5.392,0.506-8.133,0.3-10.789-0.811c-5.472-2.285-6.095-4.345-5.344-17.642c0.81-14.332,4.254-27.798,9.684-37.865
	c9.678-17.943,46.49-52.729,68.439-64.674c3.85-2.095,9.025-5.26,11.5-7.034c2.475-1.773,7.65-4.67,11.5-6.438s11.05-5.151,16-7.518
	c19.568-9.358,30.32-12.772,65.5-20.796c19.519-4.452,30.699-5.579,56.5-5.697c13.2-0.06,28.5-0.662,34-1.337
	c6.914-0.849,13.857-0.968,22.5-0.386c6.875,0.463,20.6,0.93,30.5,1.036c17.064,0.185,18.247,0.073,22.757-2.148
	c5.219-2.57,13.397-10.139,18.541-17.158c12.463-17.009,27.136-34.265,34.476-40.547c3.184-2.724,8.812-8.016,12.508-11.76
	c10.006-10.137,20.526-18.322,29.09-22.634c4.196-2.112,12.559-6.584,18.584-9.938c6.024-3.354,13.225-6.837,16-7.742
	c2.774-0.904,5.495-1.975,6.045-2.378c1.824-1.338,24.628-8.189,30.361-9.122c3.102-0.505,9.914-1.36,15.139-1.901
	c12.07-1.249,57.231-0.845,58.234,0.521c1.269,1.726,0.838,5.5-0.626,5.5c-0.766,0-6.783,5.166-13.373,11.479
	c-14.669,14.053-23.215,26.253-33.923,48.428C596.386,163.889,587,193.379,587,210.437c0,15.729,5.756,31.402,13.5,36.766
	c2.2,1.523,7.825,4.154,12.5,5.847c9.795,3.545,13.466,4.933,20.729,7.836c2.876,1.149,6.701,2.307,8.5,2.572
	c1.8,0.265,5.071,0.984,7.271,1.599c7.814,2.181,39.323,9.418,50,11.483c4.4,0.851,11.15,1.994,15,2.541
	c3.85,0.546,14.635,2.155,23.966,3.576c14.216,2.165,19.239,2.504,31,2.095c9.95-0.346,15.127-0.967,17.789-2.135
	c7.233-3.172,13.642-14.94,19.664-36.116c2.19-7.7,4.274-15.8,4.631-18c0.739-4.556,4.967-18.275,7.242-23.5
	c12.86-29.534,25.041-48.224,37.894-58.142c4.842-3.737,34.053-18.805,36.643-18.902c0.645-0.024,2.972-0.715,5.172-1.535
	c12.164-4.533,40.156-12.128,48.173-13.071l5.327-0.626v3.57c0,2.626-0.501,3.729-1.895,4.172
	c-3.062,0.972-11.077,10.207-13.292,15.316c-1.125,2.595-3.571,7.974-5.437,11.955c-3.853,8.221-5.641,13.363-7.393,21.262
	c-0.671,3.025-2.044,8.425-3.052,12c-2.934,10.407-7.393,39.985-8.518,56.5c-1.033,15.166-12.096,44.685-18.442,49.21
	c-0.934,0.666-2.238,2.518-2.9,4.117c-0.662,1.598-2.198,3.438-3.412,4.088c-1.215,0.65-3.096,2.501-4.179,4.114
	c-1.984,2.953-9.707,8.972-11.511,8.972c-2.231,0-0.729,1.925,2.279,2.92c4.614,1.526,14.332,9.429,18.008,14.643
	c1.716,2.434,4.848,9.678,6.961,16.097c3.714,11.283,3.86,12.258,4.39,29.255c0.718,23.066,2.917,43.718,5.473,51.402
	c1.131,3.399,3.825,9.134,5.987,12.742c2.162,3.607,3.932,6.959,3.932,7.446c0,2.045,5.418,8.493,7.136,8.493
	c2.272,0,2.438,2.279,0.294,4.059c-1.936,1.605-16.214-0.126-26.43-3.205c-13.738-4.141-31.893-12.787-38.937-18.545
	c-12.588-10.287-18.645-16.589-23.276-24.216c-1.199-1.976-2.447-3.817-2.773-4.093c-1.836-1.552-11.341-14.535-16.514-22.558
	c-3.3-5.118-9.375-13.353-13.5-18.299c-6.876-8.245-7.805-9-11.162-9.069c-2.593-0.053-5.217,0.949-8.978,3.426
	c-2.923,1.925-5.865,3.5-6.538,3.5c-0.672,0-1.583,0.611-2.022,1.358s-2.012,1.985-3.492,2.75c-1.481,0.766-5.081,3.671-8,6.458
	c-7.312,6.98-12.909,10.615-27.107,17.605c-6.71,3.305-14.45,7.688-17.2,9.744c-4.28,3.199-8.117,5.688-15.5,10.058
	c-0.825,0.488-5.775,3.251-11,6.14c-8.887,4.912-20.869,12.561-22.001,14.043c-0.834,1.093-10.895,7.842-11.725,7.866
	c-0.426,0.012-1.899,0.902-3.274,1.978s-3.306,1.966-4.29,1.978c-0.984,0.013-3.67,0.981-5.969,2.154
	c-19.152,9.771-70.518,24.439-92.85,26.515c-3.825,0.355-7.178,1.008-7.45,1.449c-0.272,0.44-0.072,2.737,0.446,5.103
	c0.519,2.366,1.468,9.252,2.11,15.302c0.642,6.05,2.279,16.4,3.64,23c1.359,6.6,2.719,14.025,3.021,16.5
	c0.522,4.29,1.588,9.105,4.977,22.5c0.835,3.3,1.669,6.675,1.853,7.5c1.685,7.549,4.77,18.828,5.522,20.19
	c0.513,0.93,1.419,4.755,2.013,8.5c1.154,7.279,4.954,16.707,7.805,19.363c0.957,0.892,4.144,6.658-1.416,5.073
	c-11.283-3.218-30.952-11.077-35.369-14.133c-1.398-0.968-6.592-4.399-11.542-7.627c-4.95-3.227-13.275-9.867-18.5-14.757
	c-25.153-23.536-46.902-44.993-54.22-53.491c-7.545-8.762-22.78-30.365-22.78-32.303c0-2.1-5.271-2.415-17.5-1.048
	c-7.15,0.8-15.475,1.55-18.5,1.668c-13.068,0.507-11.471-0.605-14.098,9.813c-2.047,8.119-2.307,11.327-2.128,26.243
	c0.383,31.827,8.026,69.387,16.746,82.282C402.609,617.823,402.442,619.922,398,618.292L398,618.292z M568,604.559
	c0-0.792-0.422-1.701-0.937-2.02s-0.909-1.357-0.876-2.309c0.033-0.952-0.645-3.756-1.508-6.23c-1.666-4.783-8.04-27.811-10.241-37
	c-3.713-15.504-6.359-28.07-6.949-33c-0.361-3.025-1.25-7.975-1.975-11c-0.726-3.025-1.614-10-1.976-15.5
	c-0.807-12.284-3.028-25.591-4.884-29.258c-0.763-1.509-1.942-5.106-2.622-7.995c-0.679-2.89-1.647-5.509-2.152-5.821
	c-0.506-0.312-2.079-2.856-3.497-5.654c-2.628-5.187-14.808-17.764-17.207-17.769c-2.258-0.005-0.789-3.484,1.615-3.827
	c3.35-0.477,11.155,3.648,15.586,8.237c5.554,5.752,7.993,9.975,11.169,19.337l2.799,8.25l6.077-0.053
	c7.368-0.063,16.183-1.677,32.077-5.872c25.111-6.627,35.06-9.833,43.57-14.041c3.063-1.515,8.014-3.55,11-4.521
	s7.904-3.128,10.93-4.792c3.025-1.663,8.862-4.806,12.971-6.983c4.109-2.178,11.085-6.337,15.5-9.243
	c4.416-2.905,11.18-6.819,15.029-8.697s9.7-5.242,13-7.476c3.3-2.234,8.025-5.179,10.5-6.544s6.525-3.85,9-5.521
	c2.475-1.671,7.65-4.729,11.5-6.793c8.562-4.594,16.532-9.471,18.373-11.244c1.98-1.906,15.361-12.001,22.486-16.963
	c14.743-10.266,20.157-10.093,31.74,1.012c5.098,4.888,12.9,14.43,12.9,15.776c0,1.834,14.096,19.964,21.244,27.324
	c2.065,2.127,3.756,4.098,3.756,4.378c0,0.281,1.463,2.185,3.25,4.229s5.238,6.272,7.668,9.395
	c7.311,9.394,21.964,20.236,30.582,22.631c12.55,3.486,19.645,5.188,20.028,4.804c0.249-0.248-1.528-4.469-3.948-9.378
	c-7.895-16.017-9.023-23.683-11.174-75.9c-0.316-7.686-0.928-14.66-1.358-15.5c-0.431-0.839-1.361-3.986-2.067-6.993
	c-1.12-4.769-2.206-6.368-8.508-12.528c-7.138-6.978-10.092-8.542-20.551-10.881c-1.448-0.324-3.094-1.706-3.752-3.151
	c-1.108-2.433-0.967-2.656,2.578-4.058c10.67-4.218,13.713-6.169,20.076-12.867c5.464-5.752,7.56-8.983,11.385-17.554
	c4.776-10.7,7.798-20.389,7.782-24.955c-0.005-1.397,0.657-5.465,1.471-9.04s2.419-12.125,3.568-19
	c2.354-14.082,5.136-28.356,7.406-38c0.842-3.575,2.445-10.55,3.563-15.5s2.423-9.9,2.899-11c0.478-1.1,2.072-4.982,3.544-8.628
	c1.473-3.646,5.064-10.62,7.98-15.5c2.917-4.879,5.143-9.161,4.947-9.514s-3.621,0.392-7.613,1.655
	c-3.992,1.263-10.633,3.272-14.758,4.465c-12.588,3.64-23.043,7.626-33,12.58c-10.809,5.377-13.925,7.623-26.507,19.097
	c-8.062,7.351-9.599,9.351-14.636,19.03c-3.096,5.949-6.86,14.641-8.366,19.316s-4.019,12.1-5.585,16.5s-3.571,10.925-4.454,14.5
	c-2.126,8.599-9.61,30.964-12.885,38.5c-6.03,13.878-9.307,17.551-18.49,20.726c-5.935,2.052-8.385,2.271-25.077,2.245
	c-14.231-0.022-20.018-0.427-25.076-1.753c-3.617-0.948-7.667-1.676-9-1.616c-3.594,0.16-21.675-2.754-27.424-4.419
	c-5.761-1.669-17.175-4.285-23-5.272c-2.2-0.373-5.125-1.217-6.5-1.876s-7-2.008-12.5-2.996c-5.5-0.989-13.375-2.8-17.5-4.025
	c-17.388-5.165-22.729-6.783-26.785-8.11c-2.356-0.771-4.831-1.406-5.5-1.409c-0.668-0.003-2.564-0.748-4.215-1.653
	s-4.454-2.425-6.23-3.376c-6.251-3.345-14.505-15.715-17.446-26.145c-1.406-4.986-1.962-25.303-0.776-28.432
	c0.439-1.162,1.515-6.258,2.389-11.325c3.984-23.086,16.106-53.709,29.188-73.732c1.857-2.843,3.377-5.42,3.377-5.726
	c0-0.307,2.025-3.577,4.5-7.267c2.475-3.69,4.5-7.039,4.5-7.441s4.7-5.831,10.445-12.064L644.892,72.5l-4.196-0.676
	c-7.195-1.159-30.69-0.79-42.195,0.663c-20.386,2.574-39.091,8.369-59,18.277c-18.218,9.066-16.134,7.928-23.168,12.66
	c-12.144,8.17-27.761,23.131-43.832,41.993c-6.05,7.1-11.9,13.946-13,15.212s-4.25,5.056-7,8.42
	c-11.104,13.587-12.946,15.62-17.864,19.701c-2.817,2.337-6.024,4.256-7.129,4.265c-1.104,0.008-4.032,0.722-6.507,1.587
	c-4.833,1.689-15.521,2.08-45.5,1.66c-9.35-0.131-20.15-0.007-24,0.275c-3.85,0.282-17.8,0.942-31,1.468
	c-28.067,1.117-47.368,2.614-50.872,3.946c-1.369,0.521-7.583,1.905-13.809,3.077c-21.73,4.089-44.586,11.403-69.319,22.182
	c-8.463,3.688-37.803,20.071-45.5,25.405c-8.312,5.761-19.327,15.645-29.993,26.913c-4.671,4.935-9.759,10.27-11.306,11.855
	c-7.058,7.233-15.97,25.13-18.481,37.117c-1.532,7.311-1.526,21.001,0.01,22.275c1.405,1.166,14.657,2.611,33.77,3.682
	c21.48,1.203,44.37,3.573,64.5,6.68c3.85,0.594,14.875,3.682,24.5,6.862s19.975,6.317,23,6.972c13.12,2.833,22.812,5.154,27,6.464
	c7.67,2.399,54.631,5.952,76,5.749c6.875-0.064,19.162-0.765,27.306-1.555c15.9-1.543,22.405-0.926,21.274,2.021
	c-0.319,0.832-0.58,1.975-0.58,2.54c0,0.593-1.046,0.764-2.48,0.403c-1.364-0.342-9.802,0.081-18.75,0.939
	c-14.51,1.394-16.466,1.801-18.084,3.765c-3.813,4.629-13.005,19.356-14.168,22.702c-1.938,5.578-3.801,4.895-7.382-2.709
	c-3.795-8.06-9.319-17.211-10.417-17.258c-0.43-0.019-1.075,0.754-1.434,1.717c-0.358,0.963-2.327,4-4.375,6.75
	c-2.047,2.75-5.361,7.812-7.364,11.25c-6.33,10.864-8.124,8.904-14.155-15.467c-1.526-6.17-3.368-11.444-4.093-11.723
	c-0.725-0.277-4.125-0.76-7.558-1.07c-3.432-0.312-7.618-0.778-9.302-1.038c-2.878-0.444-3.399,0.022-8.7,7.788
	c-6.317,9.255-11.736,20.109-11.737,23.51c0,1.237-0.539,2.25-1.196,2.25c-1.366,0-6.805-4.954-6.805-6.198
	c0-0.453-0.856-2.731-1.902-5.062c-2.021-4.505-6.141-15.706-8.121-22.081c-0.656-2.113-1.53-3.463-1.941-3
	c-1.338,1.507-4.898,11.696-6.233,17.842c-1.146,5.275-1.611,6.036-3.85,6.297c-2.317,0.27-3.006-0.634-7.625-10
	c-2.793-5.663-5.643-12.097-6.333-14.297c-0.69-2.2-1.58-4.45-1.977-5c-0.396-0.55-1.552-3.362-2.567-6.25s-2.207-5.25-2.648-5.25
	c-0.441,0-0.804,0.112-0.807,0.25c-0.002,0.138-1.8,5.425-3.996,11.75s-3.993,13.098-3.996,15.05
	c-0.004,3.564-1.424,5.95-3.541,5.95c-1.715,0-10.926-18.294-14.35-28.5l-3.019-9l-5.798-0.696
	c-17.558-2.109-42.304-3.386-42.279-2.183c0.01,0.484,2.147,2.354,4.75,4.156c6.64,4.598,17.047,12.472,21.455,16.23
	c2.048,1.746,7.673,5.904,12.5,9.24c4.828,3.336,10.846,7.906,13.374,10.158c2.528,2.252,9.885,7.207,16.348,11.013
	c6.463,3.806,12.27,7.411,12.903,8.013c1.67,1.583,14.167,9.568,14.976,9.568c0.376,0,4.361,2.475,8.854,5.5
	c4.493,3.025,8.696,5.5,9.341,5.5c0.644,0,1.926,0.834,2.848,1.853s5.379,3.517,9.905,5.55c4.525,2.034,9.815,4.531,11.755,5.549
	c1.94,1.019,5.54,2.387,8,3.041c3.8,1.01,12.987,4.617,20.474,8.039c1.1,0.503,3.8,1.549,6,2.323c2.2,0.775,7.15,2.562,11,3.972
	c16.5,6.039,36.991,10.709,69,15.726c6.745,1.057,31.618,0.326,38.5-1.132c2.475-0.524,9.595-1.353,15.821-1.841
	s11.472-1.044,11.655-1.233c0.185-0.19-0.41-3.194-1.32-6.677c-1.602-6.124-1.592-6.377,0.285-7.75
	c2.883-2.107,4.473-1.737,5.715,1.331c0.612,1.513,2.403,5.583,3.979,9.045c1.576,3.462,2.865,6.854,2.865,7.535
	c0,0.683,2.77,5.499,6.153,10.705c8.464,13.018,17.809,24.066,36.339,42.965c6.202,6.325,13.6,14.182,16.438,17.458
	c2.839,3.277,7.086,7.327,9.438,9s6.867,5.517,10.033,8.542c3.167,3.025,6.621,5.823,7.678,6.218c1.056,0.395,1.92,1.099,1.92,1.564
	s1.688,1.646,3.75,2.622c2.062,0.977,7.557,4.322,12.209,7.436c7.837,5.244,21.554,12.958,23.291,13.1
	C567.662,605.973,568,605.352,568,604.559L568,604.559z M352.5,347.129c-7.323-2.386-9.505-3.897-11.085-7.677
	c-1.979-4.736-1.767-9.438,0.727-16.1c4.999-13.363,17.717-17.684,32.342-10.988c5.151,2.358,5.37,2.625,6.564,7.959
	c1.057,4.722,0.987,6.506-0.479,12.348c-1.749,6.966-5.053,12.447-8.668,14.382C368.512,348.867,357.961,348.908,352.5,347.129
	L352.5,347.129z M370.296,339.75c2.517-2.378,3.742-4.671,4.571-8.549c2.153-10.071,1.246-12.687-5.258-15.159
	c-3.652-1.389-3.947-1.048-2.21,2.546c2.745,5.679,2.837,8.766,0.369,12.428c-4.386,6.507-15.702,6.044-18.699-0.766
	c-2.357-5.356-3.571-4.075-3.08,3.25c0.111,1.65,0.636,3.529,1.167,4.175c2.169,2.642,9.483,5.323,14.522,5.324
	C366.15,343,367.327,342.556,370.296,339.75z M362.5,322.5c0-4.285-1.457-5.4-3.884-2.973c-2.168,2.167-2.088,6.205,0.134,6.778
	C361.829,327.098,362.5,326.418,362.5,322.5z M387.463,601.25c-0.346-2.062-1.485-6.45-2.533-9.75
	c-2.701-8.506-6.854-31.215-7.863-43c-0.471-5.5-0.721-19.787-0.555-31.748c0.199-14.341-0.053-21.969-0.741-22.394
	c-0.573-0.354-4.244-0.839-8.157-1.075c-3.912-0.237-8.238-0.835-9.613-1.328s-7.45-1.401-13.5-2.018
	c-9.864-1.004-21.994-3.059-26.75-4.53c-1.398-0.434-1.75,0.062-1.75,2.467c0,1.654,0.457,3.291,1.017,3.636
	c0.559,0.346,0.818,0.948,0.576,1.34c-0.861,1.394,6.709,27.605,11.885,41.15c4.045,10.587,12.18,25.904,16.463,31
	c2.543,3.025,6.148,7.525,8.012,10c8.242,10.947,28.73,29.32,33.343,29.9C387.732,604.955,387.808,603.312,387.463,601.25
	L387.463,601.25z M294.329,410.688c2.656-3.953,6.128-8.987,7.717-11.188c5.003-6.93,4.57-7.33-8.295-7.688
	c-6.188-0.172-11.584-0.068-11.994,0.231c-0.704,0.515,4.435,22.839,5.746,24.959C288.591,418.766,289.411,418.008,294.329,410.688z
	 M245.892,395.449c2.81-3.711,5.108-7.121,5.108-7.579s-1.237-1.079-2.75-1.382c-1.513-0.301-5.694-1.431-9.292-2.509
	c-3.598-1.079-8.661-2.251-11.25-2.606c-4.252-0.582-4.708-0.451-4.708,1.348c0,2.417,5.491,21.805,7.655,27.028
	c2.903,7.01,3.404,6.966,6.906-0.595C239.334,405.327,243.083,399.16,245.892,395.449z M329.367,403.124
	c3.098-4.607,5.633-8.752,5.633-9.211c0-0.458-5.584-0.806-12.409-0.771l-12.409,0.063l2.674,5.647
	c1.471,3.106,3.455,6.76,4.409,8.12c0.954,1.359,1.735,2.957,1.735,3.55s0.543,1.621,1.207,2.285
	C321.73,414.331,322.075,413.967,329.367,403.124L329.367,403.124z M209.05,398.75c0.688-2.888,2.757-8.568,4.6-12.625
	c1.843-4.057,3.35-7.666,3.35-8.022s-1.913-1.126-4.25-1.709c-2.337-0.584-7.272-1.901-10.966-2.928
	c-3.694-1.026-6.963-1.62-7.265-1.318C193.063,373.604,205.017,404,207.045,404C207.46,404,208.363,401.638,209.05,398.75z
	 M175.176,387.25c0.871-2.612,2.738-7.887,4.149-11.721c1.411-3.835,2.426-7.111,2.256-7.281
	c-1.131-1.131-19.582-2.926-19.582-1.904c0,0.782,3.958,11.515,5.958,16.156c1.185,2.75,2.569,6.013,3.077,7.25
	C172.415,393.117,173.422,392.51,175.176,387.25L175.176,387.25z"/>
</svg>
